<svg xmlns="http://www.w3.org/2000/svg" xmlns:xlink="http://www.w3.org/1999/xlink" contentStyleType="text/css" data-diagram-type="SEQUENCE" height="1315px" preserveAspectRatio="none" style="width:1727px;height:1315px;background:#FFFFFF;" version="1.1" viewBox="0 0 1727 1315" width="1727px" zoomAndPan="magnify"><defs/><g><g><title>TransactionController</title><rect fill="#FFFFFF" height="130.5313" style="stroke:#181818;stroke-width:1;" width="10" x="834.876" y="750.9531"/></g><rect fill="none" height="46.2656" style="stroke:#000000;stroke-width:1.5;" width="394.5635" x="51.5303" y="170.5625"/><rect fill="none" height="75.3984" style="stroke:#000000;stroke-width:1.5;" width="893.8628" x="747.2158" y="939.6172"/><g><title>Client</title><rect fill="#000000" fill-opacity="0.00000" height="1153.5156" width="8" x="24.2651" y="81.2969"/><line style="stroke:#181818;stroke-width:0.5;stroke-dasharray:5.0,5.0;" x1="28" x2="28" y1="81.2969" y2="1234.8125"/></g><g><title>DataInitializer</title><rect fill="#000000" fill-opacity="0.00000" height="1153.5156" width="8" x="113.4175" y="81.2969"/><line style="stroke:#181818;stroke-width:0.5;stroke-dasharray:5.0,5.0;" x1="116.5303" x2="116.5303" y1="81.2969" y2="1234.8125"/></g><g><title>AuthController</title><rect fill="#000000" fill-opacity="0.00000" height="1153.5156" width="8" x="237.2974" y="81.2969"/><line style="stroke:#181818;stroke-width:0.5;stroke-dasharray:5.0,5.0;" x1="240.3047" x2="240.3047" y1="81.2969" y2="1234.8125"/></g><g><title>UserController</title><rect fill="#000000" fill-opacity="0.00000" height="1153.5156" width="8" x="374.5522" y="81.2969"/><line style="stroke:#181818;stroke-width:0.5;stroke-dasharray:5.0,5.0;" x1="378.0107" x2="378.0107" y1="81.2969" y2="1234.8125"/></g><g><title>CustomerController</title><rect fill="#000000" fill-opacity="0.00000" height="1153.5156" width="8" x="517.6821" y="81.2969"/><line style="stroke:#181818;stroke-width:0.5;stroke-dasharray:5.0,5.0;" x1="521.0938" x2="521.0938" y1="81.2969" y2="1234.8125"/></g><g><title>AccountController</title><rect fill="#000000" fill-opacity="0.00000" height="1153.5156" width="8" x="673.2432" y="81.2969"/><line style="stroke:#181818;stroke-width:0.5;stroke-dasharray:5.0,5.0;" x1="676.2705" x2="676.2705" y1="81.2969" y2="1234.8125"/></g><g><title>TransactionController</title><rect fill="#000000" fill-opacity="0.00000" height="1153.5156" width="8" x="835.876" y="81.2969"/><line style="stroke:#181818;stroke-width:0.5;stroke-dasharray:5.0,5.0;" x1="839.2158" x2="839.2158" y1="81.2969" y2="1234.8125"/></g><g><title>AlertController</title><rect fill="#000000" fill-opacity="0.00000" height="1153.5156" width="8" x="1049.9121" y="81.2969"/><line style="stroke:#181818;stroke-width:0.5;stroke-dasharray:5.0,5.0;" x1="1053.6631" x2="1053.6631" y1="81.2969" y2="1234.8125"/></g><g><title>AuditLogController</title><rect fill="#000000" fill-opacity="0.00000" height="1153.5156" width="8" x="1190.7314" y="81.2969"/><line style="stroke:#181818;stroke-width:0.5;stroke-dasharray:5.0,5.0;" x1="1194.1611" x2="1194.1611" y1="81.2969" y2="1234.8125"/></g><g><title>ExchangeRateService</title><rect fill="#000000" fill-opacity="0.00000" height="1153.5156" width="8" x="1356.7036" y="81.2969"/><line style="stroke:#181818;stroke-width:0.5;stroke-dasharray:5.0,5.0;" x1="1360.3018" x2="1360.3018" y1="81.2969" y2="1234.8125"/></g><g><title>Cassandra DB</title><rect fill="#000000" fill-opacity="0.00000" height="1153.5156" width="8" x="1574.853" y="81.2969"/><line style="stroke:#181818;stroke-width:0.5;stroke-dasharray:5.0,5.0;" x1="1578.6274" x2="1578.6274" y1="81.2969" y2="1234.8125"/></g><g><title>SparkML</title><rect fill="#000000" fill-opacity="0.00000" height="1153.5156" width="8" x="1674.126" y="81.2969"/><line style="stroke:#181818;stroke-width:0.5;stroke-dasharray:5.0,5.0;" x1="1678.0786" x2="1678.0786" y1="81.2969" y2="1234.8125"/></g><g class="participant participant-head" data-participant="Client"><text fill="#000000" font-family="sans-serif" font-size="14" lengthAdjust="spacing" textLength="40.5303" x="5" y="77.9951">Client</text><ellipse cx="28.2651" cy="13.5" fill="#E2E2F0" rx="8" ry="8" style="stroke:#181818;stroke-width:0.5;"/><path d="M28.2651,21.5 L28.2651,48.5 M15.2651,29.5 L41.2651,29.5 M28.2651,48.5 L15.2651,63.5 M28.2651,48.5 L41.2651,63.5" fill="none" style="stroke:#181818;stroke-width:0.5;"/></g><g class="participant participant-tail" data-participant="Client"><text fill="#000000" font-family="sans-serif" font-size="14" lengthAdjust="spacing" textLength="40.5303" x="5" y="1246.8076">Client</text><ellipse cx="28.2651" cy="1258.6094" fill="#E2E2F0" rx="8" ry="8" style="stroke:#181818;stroke-width:0.5;"/><path d="M28.2651,1266.6094 L28.2651,1293.6094 M15.2651,1274.6094 L41.2651,1274.6094 M28.2651,1293.6094 L15.2651,1308.6094 M28.2651,1293.6094 L41.2651,1308.6094" fill="none" style="stroke:#181818;stroke-width:0.5;"/></g><g class="participant participant-head" data-participant="DataInit"><rect fill="#E2E2F0" height="30.2969" rx="2.5" ry="2.5" style="stroke:#181818;stroke-width:0.5;" width="111.7744" x="61.5303" y="50"/><text fill="#000000" font-family="sans-serif" font-size="14" lengthAdjust="spacing" textLength="97.7744" x="68.5303" y="69.9951">DataInitializer</text></g><g class="participant participant-tail" data-participant="DataInit"><rect fill="#E2E2F0" height="30.2969" rx="2.5" ry="2.5" style="stroke:#181818;stroke-width:0.5;" width="111.7744" x="61.5303" y="1233.8125"/><text fill="#000000" font-family="sans-serif" font-size="14" lengthAdjust="spacing" textLength="97.7744" x="68.5303" y="1253.8076">DataInitializer</text></g><g class="participant participant-head" data-participant="AuthC"><rect fill="#E2E2F0" height="30.2969" rx="2.5" ry="2.5" style="stroke:#181818;stroke-width:0.5;" width="115.9854" x="183.3047" y="50"/><text fill="#000000" font-family="sans-serif" font-size="14" lengthAdjust="spacing" textLength="101.9854" x="190.3047" y="69.9951">AuthController</text></g><g class="participant participant-tail" data-participant="AuthC"><rect fill="#E2E2F0" height="30.2969" rx="2.5" ry="2.5" style="stroke:#181818;stroke-width:0.5;" width="115.9854" x="183.3047" y="1233.8125"/><text fill="#000000" font-family="sans-serif" font-size="14" lengthAdjust="spacing" textLength="101.9854" x="190.3047" y="1253.8076">AuthController</text></g><g class="participant participant-head" data-participant="UserC"><rect fill="#E2E2F0" height="30.2969" rx="2.5" ry="2.5" style="stroke:#181818;stroke-width:0.5;" width="115.083" x="321.0107" y="50"/><text fill="#000000" font-family="sans-serif" font-size="14" lengthAdjust="spacing" textLength="101.083" x="328.0107" y="69.9951">UserController</text></g><g class="participant participant-tail" data-participant="UserC"><rect fill="#E2E2F0" height="30.2969" rx="2.5" ry="2.5" style="stroke:#181818;stroke-width:0.5;" width="115.083" x="321.0107" y="1233.8125"/><text fill="#000000" font-family="sans-serif" font-size="14" lengthAdjust="spacing" textLength="101.083" x="328.0107" y="1253.8076">UserController</text></g><g class="participant participant-head" data-participant="CustC"><rect fill="#E2E2F0" height="30.2969" rx="2.5" ry="2.5" style="stroke:#181818;stroke-width:0.5;" width="151.1768" x="446.0938" y="50"/><text fill="#000000" font-family="sans-serif" font-size="14" lengthAdjust="spacing" textLength="137.1768" x="453.0938" y="69.9951">CustomerController</text></g><g class="participant participant-tail" data-participant="CustC"><rect fill="#E2E2F0" height="30.2969" rx="2.5" ry="2.5" style="stroke:#181818;stroke-width:0.5;" width="151.1768" x="446.0938" y="1233.8125"/><text fill="#000000" font-family="sans-serif" font-size="14" lengthAdjust="spacing" textLength="137.1768" x="453.0938" y="1253.8076">CustomerController</text></g><g class="participant participant-head" data-participant="AccC"><rect fill="#E2E2F0" height="30.2969" rx="2.5" ry="2.5" style="stroke:#181818;stroke-width:0.5;" width="139.9453" x="607.2705" y="50"/><text fill="#000000" font-family="sans-serif" font-size="14" lengthAdjust="spacing" textLength="125.9453" x="614.2705" y="69.9951">AccountController</text></g><g class="participant participant-tail" data-participant="AccC"><rect fill="#E2E2F0" height="30.2969" rx="2.5" ry="2.5" style="stroke:#181818;stroke-width:0.5;" width="139.9453" x="607.2705" y="1233.8125"/><text fill="#000000" font-family="sans-serif" font-size="14" lengthAdjust="spacing" textLength="125.9453" x="614.2705" y="1253.8076">AccountController</text></g><g class="participant participant-head" data-participant="TransC"><rect fill="#E2E2F0" height="30.2969" rx="2.5" ry="2.5" style="stroke:#181818;stroke-width:0.5;" width="165.3203" x="757.2158" y="50"/><text fill="#000000" font-family="sans-serif" font-size="14" lengthAdjust="spacing" textLength="151.3203" x="764.2158" y="69.9951">TransactionController</text></g><g class="participant participant-tail" data-participant="TransC"><rect fill="#E2E2F0" height="30.2969" rx="2.5" ry="2.5" style="stroke:#181818;stroke-width:0.5;" width="165.3203" x="757.2158" y="1233.8125"/><text fill="#000000" font-family="sans-serif" font-size="14" lengthAdjust="spacing" textLength="151.3203" x="764.2158" y="1253.8076">TransactionController</text></g><g class="participant participant-head" data-participant="AlertC"><rect fill="#E2E2F0" height="30.2969" rx="2.5" ry="2.5" style="stroke:#181818;stroke-width:0.5;" width="116.498" x="995.6631" y="50"/><text fill="#000000" font-family="sans-serif" font-size="14" lengthAdjust="spacing" textLength="102.498" x="1002.6631" y="69.9951">AlertController</text></g><g class="participant participant-tail" data-participant="AlertC"><rect fill="#E2E2F0" height="30.2969" rx="2.5" ry="2.5" style="stroke:#181818;stroke-width:0.5;" width="116.498" x="995.6631" y="1233.8125"/><text fill="#000000" font-family="sans-serif" font-size="14" lengthAdjust="spacing" textLength="102.498" x="1002.6631" y="1253.8076">AlertController</text></g><g class="participant participant-head" data-participant="AuditC"><rect fill="#E2E2F0" height="30.2969" rx="2.5" ry="2.5" style="stroke:#181818;stroke-width:0.5;" width="145.1406" x="1122.1611" y="50"/><text fill="#000000" font-family="sans-serif" font-size="14" lengthAdjust="spacing" textLength="131.1406" x="1129.1611" y="69.9951">AuditLogController</text></g><g class="participant participant-tail" data-participant="AuditC"><rect fill="#E2E2F0" height="30.2969" rx="2.5" ry="2.5" style="stroke:#181818;stroke-width:0.5;" width="145.1406" x="1122.1611" y="1233.8125"/><text fill="#000000" font-family="sans-serif" font-size="14" lengthAdjust="spacing" textLength="131.1406" x="1129.1611" y="1253.8076">AuditLogController</text></g><g class="participant participant-head" data-participant="ERS"><rect fill="#E2E2F0" height="30.2969" rx="2.5" ry="2.5" style="stroke:#181818;stroke-width:0.5;" width="166.8037" x="1277.3018" y="50"/><text fill="#000000" font-family="sans-serif" font-size="14" lengthAdjust="spacing" textLength="152.8037" x="1284.3018" y="69.9951">ExchangeRateService</text></g><g class="participant participant-tail" data-participant="ERS"><rect fill="#E2E2F0" height="30.2969" rx="2.5" ry="2.5" style="stroke:#181818;stroke-width:0.5;" width="166.8037" x="1277.3018" y="1233.8125"/><text fill="#000000" font-family="sans-serif" font-size="14" lengthAdjust="spacing" textLength="152.8037" x="1284.3018" y="1253.8076">ExchangeRateService</text></g><g class="participant participant-head" data-participant="Cassandra"><text fill="#000000" font-family="sans-serif" font-size="14" lengthAdjust="spacing" textLength="98.4512" x="1526.6274" y="77.9951">Cassandra DB</text><path d="M1560.853,29 C1560.853,19 1578.853,19 1578.853,19 C1578.853,19 1596.853,19 1596.853,29 L1596.853,55 C1596.853,65 1578.853,65 1578.853,65 C1578.853,65 1560.853,65 1560.853,55 L1560.853,29" fill="#E2E2F0" style="stroke:#181818;stroke-width:1.5;"/><path d="M1560.853,29 C1560.853,39 1578.853,39 1578.853,39 C1578.853,39 1596.853,39 1596.853,29" fill="none" style="stroke:#181818;stroke-width:1.5;"/></g><g class="participant participant-tail" data-participant="Cassandra"><text fill="#000000" font-family="sans-serif" font-size="14" lengthAdjust="spacing" textLength="98.4512" x="1526.6274" y="1246.8076">Cassandra DB</text><path d="M1560.853,1260.1094 C1560.853,1250.1094 1578.853,1250.1094 1578.853,1250.1094 C1578.853,1250.1094 1596.853,1250.1094 1596.853,1260.1094 L1596.853,1286.1094 C1596.853,1296.1094 1578.853,1296.1094 1578.853,1296.1094 C1578.853,1296.1094 1560.853,1296.1094 1560.853,1286.1094 L1560.853,1260.1094" fill="#E2E2F0" style="stroke:#181818;stroke-width:1.5;"/><path d="M1560.853,1260.1094 C1560.853,1270.1094 1578.853,1270.1094 1578.853,1270.1094 C1578.853,1270.1094 1596.853,1270.1094 1596.853,1260.1094" fill="none" style="stroke:#181818;stroke-width:1.5;"/></g><g class="participant participant-head" data-participant="SparkML"><rect fill="#E2E2F0" height="30.2969" rx="2.5" ry="2.5" style="stroke:#181818;stroke-width:0.5;" width="74.0947" x="1641.0786" y="50"/><text fill="#000000" font-family="sans-serif" font-size="14" lengthAdjust="spacing" textLength="60.0947" x="1648.0786" y="69.9951">SparkML</text></g><g class="participant participant-tail" data-participant="SparkML"><rect fill="#E2E2F0" height="30.2969" rx="2.5" ry="2.5" style="stroke:#181818;stroke-width:0.5;" width="74.0947" x="1641.0786" y="1233.8125"/><text fill="#000000" font-family="sans-serif" font-size="14" lengthAdjust="spacing" textLength="60.0947" x="1648.0786" y="1253.8076">SparkML</text></g><g><title>TransactionController</title><rect fill="#FFFFFF" height="130.5313" style="stroke:#181818;stroke-width:1;" width="10" x="834.876" y="750.9531"/></g><rect fill="#EEEEEE" height="3" style="stroke:#EEEEEE;stroke-width:1;" width="1720.1733" x="0" y="111.8633"/><line style="stroke:#000000;stroke-width:1;" x1="0" x2="1720.1733" y1="111.8633" y2="111.8633"/><line style="stroke:#000000;stroke-width:1;" x1="0" x2="1720.1733" y1="114.8633" y2="114.8633"/><rect fill="#EEEEEE" height="23.1328" style="stroke:#000000;stroke-width:2;" width="110.7954" x="804.689" y="101.2969"/><text fill="#000000" font-family="sans-serif" font-size="13" font-weight="bold" lengthAdjust="spacing" textLength="92.2695" x="810.689" y="117.3638">Initialisation</text><g class="message" data-participant-1="DataInit" data-participant-2="UserC"><polygon fill="#181818" points="366.5522,151.5625,376.5522,155.5625,366.5522,159.5625,370.5522,155.5625" style="stroke:#181818;stroke-width:1;"/><line style="stroke:#181818;stroke-width:1;" x1="117.4175" x2="372.5522" y1="155.5625" y2="155.5625"/><text fill="#000000" font-family="sans-serif" font-size="13" lengthAdjust="spacing" textLength="136.4365" x="124.4175" y="150.4966">checkIfAdminExists()</text></g><path d="M51.5303,170.5625 L115.9731,170.5625 L115.9731,177.6953 L105.9731,187.6953 L51.5303,187.6953 L51.5303,170.5625" fill="#EEEEEE" style="stroke:#000000;stroke-width:1.5;"/><rect fill="none" height="46.2656" style="stroke:#000000;stroke-width:1.5;" width="394.5635" x="51.5303" y="170.5625"/><text fill="#000000" font-family="sans-serif" font-size="13" font-weight="bold" lengthAdjust="spacing" textLength="19.4429" x="66.5303" y="183.6294">alt</text><text fill="#000000" font-family="sans-serif" font-size="11" font-weight="bold" lengthAdjust="spacing" textLength="112.5996" x="130.9731" y="182.7729">[admin not found]</text><g class="message" data-participant-1="DataInit" data-participant-2="UserC"><polygon fill="#181818" points="366.5522,204.8281,376.5522,208.8281,366.5522,212.8281,370.5522,208.8281" style="stroke:#181818;stroke-width:1;"/><line style="stroke:#181818;stroke-width:1;" x1="117.4175" x2="372.5522" y1="208.8281" y2="208.8281"/><text fill="#000000" font-family="sans-serif" font-size="13" lengthAdjust="spacing" textLength="93.355" x="124.4175" y="203.7622">createAdmin()</text></g><rect fill="#EEEEEE" height="3" style="stroke:#EEEEEE;stroke-width:1;" width="1720.1733" x="0" y="244.3945"/><line style="stroke:#000000;stroke-width:1;" x1="0" x2="1720.1733" y1="244.3945" y2="244.3945"/><line style="stroke:#000000;stroke-width:1;" x1="0" x2="1720.1733" y1="247.3945" y2="247.3945"/><rect fill="#EEEEEE" height="23.1328" style="stroke:#000000;stroke-width:2;" width="97.0908" x="811.5413" y="233.8281"/><text fill="#000000" font-family="sans-serif" font-size="13" font-weight="bold" lengthAdjust="spacing" textLength="78.5649" x="817.5413" y="249.895">Inscription</text><g class="message" data-participant-1="Client" data-participant-2="AuthC"><polygon fill="#181818" points="229.2974,284.0938,239.2974,288.0938,229.2974,292.0938,233.2974,288.0938" style="stroke:#181818;stroke-width:1;"/><line style="stroke:#181818;stroke-width:1;" x1="28.2651" x2="235.2974" y1="288.0938" y2="288.0938"/><text fill="#000000" font-family="sans-serif" font-size="13" lengthAdjust="spacing" textLength="113.2549" x="35.2651" y="283.0278">register(UserDto)</text></g><g class="message" data-participant-1="AuthC" data-participant-2="UserC"><polygon fill="#181818" points="366.5522,313.2266,376.5522,317.2266,366.5522,321.2266,370.5522,317.2266" style="stroke:#181818;stroke-width:1;"/><line style="stroke:#181818;stroke-width:1;" x1="241.2974" x2="372.5522" y1="317.2266" y2="317.2266"/><text fill="#000000" font-family="sans-serif" font-size="13" lengthAdjust="spacing" textLength="113.2549" x="248.2974" y="312.1606">register(UserDto)</text></g><g class="message" data-participant-1="UserC" data-participant-2="Cassandra"><polygon fill="#181818" points="1566.853,342.3594,1576.853,346.3594,1566.853,350.3594,1570.853,346.3594" style="stroke:#181818;stroke-width:1;"/><line style="stroke:#181818;stroke-width:1;" x1="378.5522" x2="1572.853" y1="346.3594" y2="346.3594"/><text fill="#000000" font-family="sans-serif" font-size="13" lengthAdjust="spacing" textLength="197.0059" x="385.5522" y="341.2935">save(User{status=PENDING})</text></g><rect fill="#EEEEEE" height="3" style="stroke:#EEEEEE;stroke-width:1;" width="1720.1733" x="0" y="374.9258"/><line style="stroke:#000000;stroke-width:1;" x1="0" x2="1720.1733" y1="374.9258" y2="374.9258"/><line style="stroke:#000000;stroke-width:1;" x1="0" x2="1720.1733" y1="377.9258" y2="377.9258"/><rect fill="#EEEEEE" height="23.1328" style="stroke:#000000;stroke-width:2;" width="109.4751" x="805.3491" y="364.3594"/><text fill="#000000" font-family="sans-serif" font-size="13" font-weight="bold" lengthAdjust="spacing" textLength="90.9492" x="811.3491" y="380.4263">Approbation</text><g class="message" data-participant-1="UserC" data-participant-2="UserC"><line style="stroke:#181818;stroke-width:1;" x1="378.5522" x2="420.5522" y1="418.625" y2="418.625"/><line style="stroke:#181818;stroke-width:1;" x1="420.5522" x2="420.5522" y1="418.625" y2="431.625"/><line style="stroke:#181818;stroke-width:1;" x1="379.5522" x2="420.5522" y1="431.625" y2="431.625"/><polygon fill="#181818" points="389.5522,427.625,379.5522,431.625,389.5522,435.625,385.5522,431.625" style="stroke:#181818;stroke-width:1;"/><text fill="#000000" font-family="sans-serif" font-size="13" lengthAdjust="spacing" textLength="129.0859" x="385.5522" y="413.5591">approveUser(email)</text></g><g class="message" data-participant-1="UserC" data-participant-2="Cassandra"><polygon fill="#181818" points="1566.853,456.7578,1576.853,460.7578,1566.853,464.7578,1570.853,460.7578" style="stroke:#181818;stroke-width:1;"/><line style="stroke:#181818;stroke-width:1;" x1="378.5522" x2="1572.853" y1="460.7578" y2="460.7578"/><text fill="#000000" font-family="sans-serif" font-size="13" lengthAdjust="spacing" textLength="179.9941" x="385.5522" y="455.6919">update status = APPROVED</text></g><rect fill="#EEEEEE" height="3" style="stroke:#EEEEEE;stroke-width:1;" width="1720.1733" x="0" y="489.3242"/><line style="stroke:#000000;stroke-width:1;" x1="0" x2="1720.1733" y1="489.3242" y2="489.3242"/><line style="stroke:#000000;stroke-width:1;" x1="0" x2="1720.1733" y1="492.3242" y2="492.3242"/><rect fill="#EEEEEE" height="23.1328" style="stroke:#000000;stroke-width:2;" width="174.9258" x="772.6238" y="478.7578"/><text fill="#000000" font-family="sans-serif" font-size="13" font-weight="bold" lengthAdjust="spacing" textLength="156.3999" x="778.6238" y="494.8247">Ouverture de compte</text><g class="message" data-participant-1="Client" data-participant-2="CustC"><polygon fill="#181818" points="509.6821,529.0234,519.6821,533.0234,509.6821,537.0234,513.6821,533.0234" style="stroke:#181818;stroke-width:1;"/><line style="stroke:#181818;stroke-width:1;" x1="28.2651" x2="515.6821" y1="533.0234" y2="533.0234"/><text fill="#000000" font-family="sans-serif" font-size="13" lengthAdjust="spacing" textLength="254.4395" x="35.2651" y="527.9575">createCustomer(CustomerRequestDto)</text></g><g class="message" data-participant-1="CustC" data-participant-2="Cassandra"><polygon fill="#181818" points="1566.853,558.1563,1576.853,562.1563,1566.853,566.1563,1570.853,562.1563" style="stroke:#181818;stroke-width:1;"/><line style="stroke:#181818;stroke-width:1;" x1="521.6821" x2="1572.853" y1="562.1563" y2="562.1563"/><text fill="#000000" font-family="sans-serif" font-size="13" lengthAdjust="spacing" textLength="103.7207" x="528.6821" y="557.0903">save(Customer)</text></g><g class="message" data-participant-1="Client" data-participant-2="AccC"><polygon fill="#181818" points="665.2432,587.2891,675.2432,591.2891,665.2432,595.2891,669.2432,591.2891" style="stroke:#181818;stroke-width:1;"/><line style="stroke:#181818;stroke-width:1;" x1="28.2651" x2="671.2432" y1="591.2891" y2="591.2891"/><text fill="#000000" font-family="sans-serif" font-size="13" lengthAdjust="spacing" textLength="233.5811" x="35.2651" y="586.2231">createAccount(AccountRequestDto)</text></g><g class="message" data-participant-1="AccC" data-participant-2="Cassandra"><polygon fill="#181818" points="1566.853,616.4219,1576.853,620.4219,1566.853,624.4219,1570.853,620.4219" style="stroke:#181818;stroke-width:1;"/><line style="stroke:#181818;stroke-width:1;" x1="677.2432" x2="1572.853" y1="620.4219" y2="620.4219"/><text fill="#000000" font-family="sans-serif" font-size="13" lengthAdjust="spacing" textLength="93.2915" x="684.2432" y="615.356">save(Account)</text></g><rect fill="#EEEEEE" height="3" style="stroke:#EEEEEE;stroke-width:1;" width="1720.1733" x="0" y="648.9883"/><line style="stroke:#000000;stroke-width:1;" x1="0" x2="1720.1733" y1="648.9883" y2="648.9883"/><line style="stroke:#000000;stroke-width:1;" x1="0" x2="1720.1733" y1="651.9883" y2="651.9883"/><rect fill="#EEEEEE" height="23.1328" style="stroke:#000000;stroke-width:2;" width="104.9048" x="807.6343" y="638.4219"/><text fill="#000000" font-family="sans-serif" font-size="13" font-weight="bold" lengthAdjust="spacing" textLength="86.3789" x="813.6343" y="654.4888">Transaction</text><g class="message" data-participant-1="Client" data-participant-2="TransC"><polygon fill="#181818" points="827.876,688.6875,837.876,692.6875,827.876,696.6875,831.876,692.6875" style="stroke:#181818;stroke-width:1;"/><line style="stroke:#181818;stroke-width:1;" x1="28.2651" x2="833.876" y1="692.6875" y2="692.6875"/><text fill="#000000" font-family="sans-serif" font-size="13" lengthAdjust="spacing" textLength="280.7061" x="35.2651" y="687.6216">createTransaction(TransactionRequestDto)</text></g><g class="message" data-participant-1="TransC" data-participant-2="Cassandra"><polygon fill="#181818" points="1566.853,717.8203,1576.853,721.8203,1566.853,725.8203,1570.853,721.8203" style="stroke:#181818;stroke-width:1;"/><line style="stroke:#181818;stroke-width:1;" x1="839.876" x2="1572.853" y1="721.8203" y2="721.8203"/><text fill="#000000" font-family="sans-serif" font-size="13" lengthAdjust="spacing" textLength="243.6548" x="846.876" y="716.7544">save(Transaction{status=PENDING})</text></g><g class="message" data-participant-1="TransC" data-participant-2="AuditC"><polygon fill="#181818" points="1182.7314,746.9531,1192.7314,750.9531,1182.7314,754.9531,1186.7314,750.9531" style="stroke:#181818;stroke-width:1;"/><line style="stroke:#181818;stroke-width:1;" x1="844.876" x2="1188.7314" y1="750.9531" y2="750.9531"/><text fill="#000000" font-family="sans-serif" font-size="13" lengthAdjust="spacing" textLength="70.9033" x="851.876" y="745.8872">logAction()</text></g><rect fill="#EEEEEE" height="3" style="stroke:#EEEEEE;stroke-width:1;" width="1720.1733" x="0" y="779.5195"/><line style="stroke:#000000;stroke-width:1;" x1="0" x2="1720.1733" y1="779.5195" y2="779.5195"/><line style="stroke:#000000;stroke-width:1;" x1="0" x2="1720.1733" y1="782.5195" y2="782.5195"/><rect fill="#EEEEEE" height="23.1328" style="stroke:#000000;stroke-width:2;" width="101.8452" x="809.1641" y="768.9531"/><text fill="#000000" font-family="sans-serif" font-size="13" font-weight="bold" lengthAdjust="spacing" textLength="83.3193" x="815.1641" y="785.02">Analyse ML</text><g class="message" data-participant-1="TransC" data-participant-2="SparkML"><polygon fill="#181818" points="1666.126,819.2188,1676.126,823.2188,1666.126,827.2188,1670.126,823.2188" style="stroke:#181818;stroke-width:1;"/><line style="stroke:#181818;stroke-width:1;" x1="844.876" x2="1672.126" y1="823.2188" y2="823.2188"/><text fill="#000000" font-family="sans-serif" font-size="13" lengthAdjust="spacing" textLength="136.7222" x="851.876" y="818.1528">analyzeTransaction()</text></g><g class="message" data-participant-1="SparkML" data-participant-2="TransC"><polygon fill="#181818" points="855.876,848.3516,845.876,852.3516,855.876,856.3516,851.876,852.3516" style="stroke:#181818;stroke-width:1;"/><line style="stroke:#181818;stroke-width:1;" x1="849.876" x2="1677.126" y1="852.3516" y2="852.3516"/><text fill="#000000" font-family="sans-serif" font-size="13" lengthAdjust="spacing" textLength="204.3564" x="861.876" y="847.2856">result = APPROVED | REJECTED</text></g><g class="message" data-participant-1="TransC" data-participant-2="Cassandra"><polygon fill="#181818" points="1566.853,877.4844,1576.853,881.4844,1566.853,885.4844,1570.853,881.4844" style="stroke:#181818;stroke-width:1;"/><line style="stroke:#181818;stroke-width:1;" x1="839.876" x2="1572.853" y1="881.4844" y2="881.4844"/><text fill="#000000" font-family="sans-serif" font-size="13" lengthAdjust="spacing" textLength="89.8828" x="846.876" y="876.4185">update status</text></g><rect fill="#EEEEEE" height="3" style="stroke:#EEEEEE;stroke-width:1;" width="1720.1733" x="0" y="910.0508"/><line style="stroke:#000000;stroke-width:1;" x1="0" x2="1720.1733" y1="910.0508" y2="910.0508"/><line style="stroke:#000000;stroke-width:1;" x1="0" x2="1720.1733" y1="913.0508" y2="913.0508"/><rect fill="#EEEEEE" height="23.1328" style="stroke:#000000;stroke-width:2;" width="165.1187" x="777.5273" y="899.4844"/><text fill="#000000" font-family="sans-serif" font-size="13" font-weight="bold" lengthAdjust="spacing" textLength="146.5928" x="783.5273" y="915.5513">D&#233;tection de fraude</text><path d="M747.2158,939.6172 L811.6587,939.6172 L811.6587,946.75 L801.6587,956.75 L747.2158,956.75 L747.2158,939.6172" fill="#EEEEEE" style="stroke:#000000;stroke-width:1.5;"/><rect fill="none" height="75.3984" style="stroke:#000000;stroke-width:1.5;" width="893.8628" x="747.2158" y="939.6172"/><text fill="#000000" font-family="sans-serif" font-size="13" font-weight="bold" lengthAdjust="spacing" textLength="19.4429" x="762.2158" y="952.6841">alt</text><text fill="#000000" font-family="sans-serif" font-size="11" font-weight="bold" lengthAdjust="spacing" textLength="82.2529" x="826.6587" y="951.8276">[if REJECTED]</text><g class="message" data-participant-1="TransC" data-participant-2="AlertC"><polygon fill="#181818" points="1041.9121,973.8828,1051.9121,977.8828,1041.9121,981.8828,1045.9121,977.8828" style="stroke:#181818;stroke-width:1;"/><line style="stroke:#181818;stroke-width:1;" x1="839.876" x2="1047.9121" y1="977.8828" y2="977.8828"/><text fill="#000000" font-family="sans-serif" font-size="13" lengthAdjust="spacing" textLength="190.0361" x="846.876" y="972.8169">createAlert(AlertRequestDto)</text></g><g class="message" data-participant-1="AlertC" data-participant-2="Cassandra"><polygon fill="#181818" points="1566.853,1003.0156,1576.853,1007.0156,1566.853,1011.0156,1570.853,1007.0156" style="stroke:#181818;stroke-width:1;"/><line style="stroke:#181818;stroke-width:1;" x1="1053.9121" x2="1572.853" y1="1007.0156" y2="1007.0156"/><text fill="#000000" font-family="sans-serif" font-size="13" lengthAdjust="spacing" textLength="71.519" x="1060.9121" y="1001.9497">save(Alert)</text></g><rect fill="#EEEEEE" height="3" style="stroke:#EEEEEE;stroke-width:1;" width="1720.1733" x="0" y="1042.582"/><line style="stroke:#000000;stroke-width:1;" x1="0" x2="1720.1733" y1="1042.582" y2="1042.582"/><line style="stroke:#000000;stroke-width:1;" x1="0" x2="1720.1733" y1="1045.582" y2="1045.582"/><rect fill="#EEEEEE" height="23.1328" style="stroke:#000000;stroke-width:2;" width="170.9775" x="774.5979" y="1032.0156"/><text fill="#000000" font-family="sans-serif" font-size="13" font-weight="bold" lengthAdjust="spacing" textLength="152.4517" x="780.5979" y="1048.0825">Lecture alerte par UI</text><g class="message" data-participant-1="Client" data-participant-2="AlertC"><polygon fill="#181818" points="1041.9121,1082.2813,1051.9121,1086.2813,1041.9121,1090.2813,1045.9121,1086.2813" style="stroke:#181818;stroke-width:1;"/><line style="stroke:#181818;stroke-width:1;" x1="28.2651" x2="1047.9121" y1="1086.2813" y2="1086.2813"/><text fill="#000000" font-family="sans-serif" font-size="13" lengthAdjust="spacing" textLength="151.3027" x="35.2651" y="1081.2153">getAlertsByUser(email)</text></g><g class="message" data-participant-1="AlertC" data-participant-2="Cassandra"><polygon fill="#181818" points="1566.853,1111.4141,1576.853,1115.4141,1566.853,1119.4141,1570.853,1115.4141" style="stroke:#181818;stroke-width:1;"/><line style="stroke:#181818;stroke-width:1;" x1="1053.9121" x2="1572.853" y1="1115.4141" y2="1115.4141"/><text fill="#000000" font-family="sans-serif" font-size="13" lengthAdjust="spacing" textLength="73.9819" x="1060.9121" y="1110.3481">fetch alerts</text></g><rect fill="#EEEEEE" height="3" style="stroke:#EEEEEE;stroke-width:1;" width="1720.1733" x="0" y="1143.9805"/><line style="stroke:#000000;stroke-width:1;" x1="0" x2="1720.1733" y1="1143.9805" y2="1143.9805"/><line style="stroke:#000000;stroke-width:1;" x1="0" x2="1720.1733" y1="1146.9805" y2="1146.9805"/><rect fill="#EEEEEE" height="23.1328" style="stroke:#000000;stroke-width:2;" width="225.8975" x="747.1379" y="1133.4141"/><text fill="#000000" font-family="sans-serif" font-size="13" font-weight="bold" lengthAdjust="spacing" textLength="207.3716" x="753.1379" y="1149.481">Chargement taux de change</text><g class="message" data-participant-1="Client" data-participant-2="ERS"><polygon fill="#181818" points="1348.7036,1183.6797,1358.7036,1187.6797,1348.7036,1191.6797,1352.7036,1187.6797" style="stroke:#181818;stroke-width:1;"/><line style="stroke:#181818;stroke-width:1;" x1="28.2651" x2="1354.7036" y1="1187.6797" y2="1187.6797"/><text fill="#000000" font-family="sans-serif" font-size="13" lengthAdjust="spacing" textLength="124.3887" x="35.2651" y="1182.6138">getRate(USD, EUR)</text></g><g class="message" data-participant-1="ERS" data-participant-2="Cassandra"><polygon fill="#181818" points="1566.853,1212.8125,1576.853,1216.8125,1566.853,1220.8125,1570.853,1216.8125" style="stroke:#181818;stroke-width:1;"/><line style="stroke:#181818;stroke-width:1;" x1="1360.7036" x2="1572.853" y1="1216.8125" y2="1216.8125"/><text fill="#000000" font-family="sans-serif" font-size="13" lengthAdjust="spacing" textLength="194.1494" x="1367.7036" y="1211.7466">fetch or create ExchangeRate</text></g><!--SRC=[TLLTZjem47xFAKRxb4Zj1LQY4akY5HNTHR3qVTOPmDgGfBQ3s6rxe9wZ5-lOJeWJKXuW6N_pVVDhK9XAmQAGL9geHcMaa3MM1kvIDBWifP5Oo0zITu0QEjiGEM_CSL6LHbL5qGATQOZQQL8Zb3CDKOj6c-fqWxJc4N8kHDMKPYmin0Zteh3KA8oioX7MdOnP-V26qzd6EUVIhAh3JTvi7a6pYpXYUQ0D6jgIEaj13fjjjb7E1Nr5JPmuQerbhX3I1vzoPuYYsGowJcYqYS1i5dMzWCzVV27X7iIHnDjoFyzFiimkKXiT9n4M1j1QeAmCxBbeUGJycIHGn54wV_OaHdfnBPIiEsK_BTRDjPdT51rOZ5HiUL9J9P4_2PXl8Vw48Ntgzw3nJ0xoKniqZPwjiwTq-VJuEt6HpEjQLQ_N6bmfEXMqvsUohp6TK1R_aMbghZo1rm3cNQytpz-pr8ayDsTkUAC8SW9HdMf63j9sqtYjLZUoSVUmeHyDQUEIzD2f93jq4jQJfxVlWX_mkFqDMHrkYhJ5-c85ap-Ctm_-LIZ0nS5pADXwJ4a67hSzw_tyPh1JKHtcNgjjQOd5Es_0jvKDqXATRMlQvUm9jhnKRmpY9bkFZq7OITGTX-afqWqFVzzU-0MRx6ksUE5EJwSq68meft4yDkBqxnz3lgmy87k5JUu6n2wQtFSATic20hXRfE-kVOtTTrXewzCY9_jhZ_h5N74OTaxHcWcu1B1RZbQqapsGSS_wuJrSZscnFHbnzBJQAIsEg0vqigG6culR37Uh3TNuJlDIzhABTzlq4sIxJH9P-wG4__duUa1uJVu3]--></g></svg>