<svg xmlns="http://www.w3.org/2000/svg" xmlns:xlink="http://www.w3.org/1999/xlink" contentStyleType="text/css" data-diagram-type="CLASS" height="1151px" preserveAspectRatio="none" style="width:1394px;height:1151px;background:#FFFFFF;" version="1.1" viewBox="0 0 1394 1151" width="1394px" zoomAndPan="magnify"><defs/><g><!--class User--><g class="entity" data-entity="User" data-source-line="4" data-uid="ent0002" id="entity_User"><rect fill="#F1F1F1" height="308.75" rx="2.5" ry="2.5" style="stroke:#181818;stroke-width:0.5;" width="185.0244" x="235.48" y="597.83"/><ellipse cx="307.7871" cy="613.83" fill="#ADD1B2" rx="11" ry="11" style="stroke:#181818;stroke-width:1;"/><path d="M310.7559,619.4706 Q310.1778,619.7675 309.5371,619.9081 Q308.8965,620.0644 308.1934,620.0644 Q305.6934,620.0644 304.3653,618.4238 Q303.0528,616.7675 303.0528,613.6425 Q303.0528,610.5175 304.3653,608.8613 Q305.6934,607.205 308.1934,607.205 Q308.8965,607.205 309.5371,607.3613 Q310.1934,607.5175 310.7559,607.8144 L310.7559,610.5331 Q310.1309,609.955 309.5371,609.6894 Q308.9434,609.4081 308.3184,609.4081 Q306.9746,609.4081 306.2871,610.4863 Q305.5996,611.5488 305.5996,613.6425 Q305.5996,615.7363 306.2871,616.8144 Q306.9746,617.8769 308.3184,617.8769 Q308.9434,617.8769 309.5371,617.6113 Q310.1309,617.33 310.7559,616.7519 L310.7559,619.4706 Z " fill="#000000"/><text fill="#000000" font-family="sans-serif" font-size="14" lengthAdjust="spacing" textLength="31.9102" x="328.2871" y="618.6767">User</text><line style="stroke:#181818;stroke-width:0.5;" x1="236.48" x2="419.5044" y1="629.83" y2="629.83"/><text fill="#000000" font-family="sans-serif" font-size="14" lengthAdjust="spacing" textLength="96.5713" x="241.48" y="646.8251">+String email</text><text fill="#000000" font-family="sans-serif" font-size="14" lengthAdjust="spacing" textLength="124.6738" x="241.48" y="663.122">+String password</text><text fill="#000000" font-family="sans-serif" font-size="14" lengthAdjust="spacing" textLength="126.6221" x="241.48" y="679.4189">+String firstName</text><text fill="#000000" font-family="sans-serif" font-size="14" lengthAdjust="spacing" textLength="124.5166" x="241.48" y="695.7157">+String lastName</text><text fill="#000000" font-family="sans-serif" font-size="14" lengthAdjust="spacing" textLength="101.7734" x="241.48" y="712.0126">+String phone</text><text fill="#000000" font-family="sans-serif" font-size="14" lengthAdjust="spacing" textLength="113.2715" x="241.48" y="728.3095">+String address</text><text fill="#000000" font-family="sans-serif" font-size="14" lengthAdjust="spacing" textLength="83.3232" x="241.48" y="744.6064">+String city</text><text fill="#000000" font-family="sans-serif" font-size="14" lengthAdjust="spacing" textLength="136.5068" x="241.48" y="760.9032">+String postalCode</text><text fill="#000000" font-family="sans-serif" font-size="14" lengthAdjust="spacing" textLength="111.501" x="241.48" y="777.2001">+String country</text><text fill="#000000" font-family="sans-serif" font-size="14" lengthAdjust="spacing" textLength="78.4219" x="241.48" y="793.497">+String cin</text><text fill="#000000" font-family="sans-serif" font-size="14" lengthAdjust="spacing" textLength="132.3643" x="241.48" y="809.7939">+String nationality</text><text fill="#000000" font-family="sans-serif" font-size="14" lengthAdjust="spacing" textLength="130.6279" x="241.48" y="826.0907">+String profession</text><text fill="#000000" font-family="sans-serif" font-size="14" lengthAdjust="spacing" textLength="173.0244" x="241.48" y="842.3876">+double monthlyIncome</text><text fill="#000000" font-family="sans-serif" font-size="14" lengthAdjust="spacing" textLength="152.5303" x="241.48" y="858.6845">+LocalDate birthDate</text><text fill="#000000" font-family="sans-serif" font-size="14" lengthAdjust="spacing" textLength="103.8105" x="241.48" y="874.9814">+Status status</text><text fill="#000000" font-family="sans-serif" font-size="14" lengthAdjust="spacing" textLength="73.8008" x="241.48" y="891.2782">+Role role</text><line style="stroke:#181818;stroke-width:0.5;" x1="236.48" x2="419.5044" y1="898.58" y2="898.58"/></g><!--class Role--><g class="entity" data-entity="Role" data-source-line="23" data-uid="ent0003" id="entity_Role"><rect fill="#F1F1F1" height="80.5938" rx="2.5" ry="2.5" style="stroke:#181818;stroke-width:0.5;" width="62.7959" x="354.59" y="1015.47"/><ellipse cx="369.59" cy="1031.47" fill="#EB937F" rx="11" ry="11" style="stroke:#181818;stroke-width:1;"/><path d="M373.6994,1037.47 L365.9806,1037.47 L365.9806,1025.0794 L373.6994,1025.0794 L373.6994,1027.2356 L368.4338,1027.2356 L368.4338,1029.9075 L373.1994,1029.9075 L373.1994,1032.0638 L368.4338,1032.0638 L368.4338,1035.3138 L373.6994,1035.3138 L373.6994,1037.47 Z " fill="#000000"/><text fill="#000000" font-family="sans-serif" font-size="14" lengthAdjust="spacing" textLength="30.7959" x="383.59" y="1036.3167">Role</text><line style="stroke:#181818;stroke-width:0.5;" x1="355.59" x2="416.3859" y1="1047.47" y2="1047.47"/><text fill="#000000" font-family="sans-serif" font-size="14" lengthAdjust="spacing" textLength="37.707" x="360.59" y="1064.4651">USER</text><text fill="#000000" font-family="sans-serif" font-size="14" lengthAdjust="spacing" textLength="47.0381" x="360.59" y="1080.762">ADMIN</text><line style="stroke:#181818;stroke-width:0.5;" x1="355.59" x2="416.3859" y1="1088.0638" y2="1088.0638"/></g><!--class Status--><g class="entity" data-entity="Status" data-source-line="28" data-uid="ent0004" id="entity_Status"><rect fill="#F1F1F1" height="113.1875" rx="2.5" ry="2.5" style="stroke:#181818;stroke-width:0.5;" width="98.1875" x="221.89" y="999.17"/><ellipse cx="246.5993" cy="1015.17" fill="#EB937F" rx="11" ry="11" style="stroke:#181818;stroke-width:1;"/><path d="M250.7087,1021.17 L242.9899,1021.17 L242.9899,1008.7794 L250.7087,1008.7794 L250.7087,1010.9356 L245.443,1010.9356 L245.443,1013.6075 L250.2087,1013.6075 L250.2087,1015.7638 L245.443,1015.7638 L245.443,1019.0138 L250.7087,1019.0138 L250.7087,1021.17 Z " fill="#000000"/><text fill="#000000" font-family="sans-serif" font-size="14" lengthAdjust="spacing" textLength="44.6113" x="262.7569" y="1020.0167">Status</text><line style="stroke:#181818;stroke-width:0.5;" x1="222.89" x2="319.0775" y1="1031.17" y2="1031.17"/><text fill="#000000" font-family="sans-serif" font-size="14" lengthAdjust="spacing" textLength="63.9912" x="227.89" y="1048.1651">PENDING</text><text fill="#000000" font-family="sans-serif" font-size="14" lengthAdjust="spacing" textLength="76.4121" x="227.89" y="1064.462">APPROVED</text><text fill="#000000" font-family="sans-serif" font-size="14" lengthAdjust="spacing" textLength="69.501" x="227.89" y="1080.7589">REJECTED</text><text fill="#000000" font-family="sans-serif" font-size="14" lengthAdjust="spacing" textLength="86.1875" x="227.89" y="1097.0557">SUSPENDED</text><line style="stroke:#181818;stroke-width:0.5;" x1="222.89" x2="319.0775" y1="1104.3575" y2="1104.3575"/></g><!--class Customer--><g class="entity" data-entity="Customer" data-source-line="38" data-uid="ent0007" id="entity_Customer"><rect fill="#F1F1F1" height="178.375" rx="2.5" ry="2.5" style="stroke:#181818;stroke-width:0.5;" width="164.5303" x="918.72" y="966.57"/><ellipse cx="962.7569" cy="982.57" fill="#ADD1B2" rx="11" ry="11" style="stroke:#181818;stroke-width:1;"/><path d="M965.7256,988.2106 Q965.1475,988.5075 964.5069,988.6481 Q963.8662,988.8044 963.1631,988.8044 Q960.6631,988.8044 959.335,987.1638 Q958.0225,985.5075 958.0225,982.3825 Q958.0225,979.2575 959.335,977.6013 Q960.6631,975.945 963.1631,975.945 Q963.8662,975.945 964.5069,976.1013 Q965.1631,976.2575 965.7256,976.5544 L965.7256,979.2731 Q965.1006,978.695 964.5069,978.4294 Q963.9131,978.1481 963.2881,978.1481 Q961.9444,978.1481 961.2569,979.2263 Q960.5694,980.2888 960.5694,982.3825 Q960.5694,984.4763 961.2569,985.5544 Q961.9444,986.6169 963.2881,986.6169 Q963.9131,986.6169 964.5069,986.3513 Q965.1006,986.07 965.7256,985.4919 L965.7256,988.2106 Z " fill="#000000"/><text fill="#000000" font-family="sans-serif" font-size="14" lengthAdjust="spacing" textLength="68.0039" x="983.2095" y="987.4167">Customer</text><line style="stroke:#181818;stroke-width:0.5;" x1="919.72" x2="1082.2503" y1="998.57" y2="998.57"/><text fill="#000000" font-family="sans-serif" font-size="14" lengthAdjust="spacing" textLength="136.9033" x="924.72" y="1015.5651">+String customerId</text><text fill="#000000" font-family="sans-serif" font-size="14" lengthAdjust="spacing" textLength="126.6221" x="924.72" y="1031.862">+String firstName</text><text fill="#000000" font-family="sans-serif" font-size="14" lengthAdjust="spacing" textLength="124.5166" x="924.72" y="1048.1589">+String lastName</text><text fill="#000000" font-family="sans-serif" font-size="14" lengthAdjust="spacing" textLength="96.5713" x="924.72" y="1064.4557">+String email</text><text fill="#000000" font-family="sans-serif" font-size="14" lengthAdjust="spacing" textLength="101.7734" x="924.72" y="1080.7526">+String phone</text><text fill="#000000" font-family="sans-serif" font-size="14" lengthAdjust="spacing" textLength="113.2715" x="924.72" y="1097.0495">+String address</text><text fill="#000000" font-family="sans-serif" font-size="14" lengthAdjust="spacing" textLength="152.5303" x="924.72" y="1113.3464">+LocalDate birthDate</text><text fill="#000000" font-family="sans-serif" font-size="14" lengthAdjust="spacing" textLength="150.3975" x="924.72" y="1129.6432">+boolean kycVerified</text><line style="stroke:#181818;stroke-width:0.5;" x1="919.72" x2="1082.2503" y1="1136.945" y2="1136.945"/></g><!--class Account--><g class="entity" data-entity="Account" data-source-line="49" data-uid="ent0008" id="entity_Account"><rect fill="#F1F1F1" height="162.0781" rx="2.5" ry="2.5" style="stroke:#181818;stroke-width:0.5;" width="181.9756" x="910" y="671.16"/><ellipse cx="968.3516" cy="687.16" fill="#ADD1B2" rx="11" ry="11" style="stroke:#181818;stroke-width:1;"/><path d="M971.3203,692.8006 Q970.7422,693.0975 970.1016,693.2381 Q969.4609,693.3944 968.7578,693.3944 Q966.2578,693.3944 964.9297,691.7538 Q963.6172,690.0975 963.6172,686.9725 Q963.6172,683.8475 964.9297,682.1913 Q966.2578,680.535 968.7578,680.535 Q969.4609,680.535 970.1016,680.6913 Q970.7578,680.8475 971.3203,681.1444 L971.3203,683.8631 Q970.6953,683.285 970.1016,683.0194 Q969.5078,682.7381 968.8828,682.7381 Q967.5391,682.7381 966.8516,683.8163 Q966.1641,684.8788 966.1641,686.9725 Q966.1641,689.0663 966.8516,690.1444 Q967.5391,691.2069 968.8828,691.2069 Q969.5078,691.2069 970.1016,690.9413 Q970.6953,690.66 971.3203,690.0819 L971.3203,692.8006 Z " fill="#000000"/><text fill="#000000" font-family="sans-serif" font-size="14" lengthAdjust="spacing" textLength="56.7725" x="988.8516" y="692.0067">Account</text><line style="stroke:#181818;stroke-width:0.5;" x1="911" x2="1090.9756" y1="703.16" y2="703.16"/><text fill="#000000" font-family="sans-serif" font-size="14" lengthAdjust="spacing" textLength="126.752" x="916" y="720.1551">+String accountId</text><text fill="#000000" font-family="sans-serif" font-size="14" lengthAdjust="spacing" textLength="169.9756" x="916" y="736.452">+String accountNumber</text><text fill="#000000" font-family="sans-serif" font-size="14" lengthAdjust="spacing" textLength="89.2363" x="916" y="752.7489">+String type</text><text fill="#000000" font-family="sans-serif" font-size="14" lengthAdjust="spacing" textLength="119.0137" x="916" y="769.0457">+double balance</text><text fill="#000000" font-family="sans-serif" font-size="14" lengthAdjust="spacing" textLength="100.9805" x="916" y="785.3426">+String status</text><text fill="#000000" font-family="sans-serif" font-size="14" lengthAdjust="spacing" textLength="154.5742" x="916" y="801.6395">+LocalDate openDate</text><text fill="#000000" font-family="sans-serif" font-size="14" lengthAdjust="spacing" textLength="136.9033" x="916" y="817.9364">+String customerId</text><line style="stroke:#181818;stroke-width:0.5;" x1="911" x2="1090.9756" y1="825.2381" y2="825.2381"/></g><!--class Transaction--><g class="entity" data-entity="Transaction" data-source-line="61" data-uid="ent0010" id="entity_Transaction"><rect fill="#F1F1F1" height="341.3438" rx="2.5" ry="2.5" style="stroke:#181818;stroke-width:0.5;" width="308.6387" x="467.67" y="196.48"/><ellipse cx="576.6656" cy="212.48" fill="#ADD1B2" rx="11" ry="11" style="stroke:#181818;stroke-width:1;"/><path d="M579.6344,218.1206 Q579.0562,218.4175 578.4156,218.5581 Q577.775,218.7144 577.0719,218.7144 Q574.5719,218.7144 573.2437,217.0738 Q571.9312,215.4175 571.9312,212.2925 Q571.9312,209.1675 573.2437,207.5113 Q574.5719,205.855 577.0719,205.855 Q577.775,205.855 578.4156,206.0113 Q579.0719,206.1675 579.6344,206.4644 L579.6344,209.1831 Q579.0094,208.605 578.4156,208.3394 Q577.8219,208.0581 577.1969,208.0581 Q575.8531,208.0581 575.1656,209.1363 Q574.4781,210.1988 574.4781,212.2925 Q574.4781,214.3863 575.1656,215.4644 Q575.8531,216.5269 577.1969,216.5269 Q577.8219,216.5269 578.4156,216.2613 Q579.0094,215.98 579.6344,215.4019 L579.6344,218.1206 Z " fill="#000000"/><text fill="#000000" font-family="sans-serif" font-size="14" lengthAdjust="spacing" textLength="82.1475" x="597.1656" y="217.3267">Transaction</text><line style="stroke:#181818;stroke-width:0.5;" x1="468.67" x2="775.3087" y1="228.48" y2="228.48"/><text fill="#000000" font-family="sans-serif" font-size="14" lengthAdjust="spacing" textLength="150.0625" x="473.67" y="245.4751">+String transactionId</text><text fill="#000000" font-family="sans-serif" font-size="14" lengthAdjust="spacing" textLength="126.752" x="473.67" y="261.772">+String accountId</text><text fill="#000000" font-family="sans-serif" font-size="14" lengthAdjust="spacing" textLength="127.3398" x="473.67" y="278.0689">+String userEmail</text><text fill="#000000" font-family="sans-serif" font-size="14" lengthAdjust="spacing" textLength="229.749" x="473.67" y="294.3657">+BigDecimal transactionAmount</text><text fill="#000000" font-family="sans-serif" font-size="14" lengthAdjust="spacing" textLength="171.3838" x="473.67" y="310.6626">+String transactionType</text><text fill="#000000" font-family="sans-serif" font-size="14" lengthAdjust="spacing" textLength="113.5107" x="473.67" y="326.9595">+String location</text><text fill="#000000" font-family="sans-serif" font-size="14" lengthAdjust="spacing" textLength="116.9629" x="473.67" y="343.2564">+String deviceId</text><text fill="#000000" font-family="sans-serif" font-size="14" lengthAdjust="spacing" textLength="127.0459" x="473.67" y="359.5532">+String ipAddress</text><text fill="#000000" font-family="sans-serif" font-size="14" lengthAdjust="spacing" textLength="138.4961" x="473.67" y="375.8501">+String merchantId</text><text fill="#000000" font-family="sans-serif" font-size="14" lengthAdjust="spacing" textLength="113.3604" x="473.67" y="392.147">+String channel</text><text fill="#000000" font-family="sans-serif" font-size="14" lengthAdjust="spacing" textLength="159.5439" x="473.67" y="408.4439">+Integer customerAge</text><text fill="#000000" font-family="sans-serif" font-size="14" lengthAdjust="spacing" textLength="203.458" x="473.67" y="424.7407">+String customerOccupation</text><text fill="#000000" font-family="sans-serif" font-size="14" lengthAdjust="spacing" textLength="206.4316" x="473.67" y="441.0376">+Integer transactionDuration</text><text fill="#000000" font-family="sans-serif" font-size="14" lengthAdjust="spacing" textLength="165.1221" x="473.67" y="457.3345">+Integer loginAttempts</text><text fill="#000000" font-family="sans-serif" font-size="14" lengthAdjust="spacing" textLength="207.2588" x="473.67" y="473.6314">+BigDecimal accountBalance</text><text fill="#000000" font-family="sans-serif" font-size="14" lengthAdjust="spacing" textLength="233.4131" x="473.67" y="489.9282">+LocalDateTime transactionDate</text><text fill="#000000" font-family="sans-serif" font-size="14" lengthAdjust="spacing" textLength="296.6387" x="473.67" y="506.2251">+LocalDateTime previousTransactionDate</text><text fill="#000000" font-family="sans-serif" font-size="14" lengthAdjust="spacing" textLength="185.958" x="473.67" y="522.522">+TransactionStatus status</text><line style="stroke:#181818;stroke-width:0.5;" x1="468.67" x2="775.3087" y1="529.8238" y2="529.8238"/></g><!--class TransactionStatus--><g class="entity" data-entity="TransactionStatus" data-source-line="82" data-uid="ent0011" id="entity_TransactionStatus"><rect fill="#F1F1F1" height="96.8906" rx="2.5" ry="2.5" style="stroke:#181818;stroke-width:0.5;" width="158.7588" x="542.61" y="703.75"/><ellipse cx="557.61" cy="719.75" fill="#EB937F" rx="11" ry="11" style="stroke:#181818;stroke-width:1;"/><path d="M561.7194,725.75 L554.0006,725.75 L554.0006,713.3594 L561.7194,713.3594 L561.7194,715.5156 L556.4538,715.5156 L556.4538,718.1875 L561.2194,718.1875 L561.2194,720.3438 L556.4538,720.3438 L556.4538,723.5938 L561.7194,723.5938 L561.7194,725.75 Z " fill="#000000"/><text fill="#000000" font-family="sans-serif" font-size="14" lengthAdjust="spacing" textLength="126.7588" x="571.61" y="724.5967">TransactionStatus</text><line style="stroke:#181818;stroke-width:0.5;" x1="543.61" x2="700.3688" y1="735.75" y2="735.75"/><text fill="#000000" font-family="sans-serif" font-size="14" lengthAdjust="spacing" textLength="63.9912" x="548.61" y="752.7451">PENDING</text><text fill="#000000" font-family="sans-serif" font-size="14" lengthAdjust="spacing" textLength="76.4121" x="548.61" y="769.042">APPROVED</text><text fill="#000000" font-family="sans-serif" font-size="14" lengthAdjust="spacing" textLength="69.501" x="548.61" y="785.3389">REJECTED</text><line style="stroke:#181818;stroke-width:0.5;" x1="543.61" x2="700.3688" y1="792.6406" y2="792.6406"/></g><!--class Card--><g class="entity" data-entity="Card" data-source-line="92" data-uid="ent0015" id="entity_Card"><rect fill="#F1F1F1" height="162.0781" rx="2.5" ry="2.5" style="stroke:#181818;stroke-width:0.5;" width="175.3516" x="811.31" y="286.11"/><ellipse cx="878.2372" cy="302.11" fill="#ADD1B2" rx="11" ry="11" style="stroke:#181818;stroke-width:1;"/><path d="M881.206,307.7506 Q880.6279,308.0475 879.9872,308.1881 Q879.3466,308.3444 878.6435,308.3444 Q876.1435,308.3444 874.8154,306.7038 Q873.5029,305.0475 873.5029,301.9225 Q873.5029,298.7975 874.8154,297.1413 Q876.1435,295.485 878.6435,295.485 Q879.3466,295.485 879.9872,295.6413 Q880.6435,295.7975 881.206,296.0944 L881.206,298.8131 Q880.581,298.235 879.9872,297.9694 Q879.3935,297.6881 878.7685,297.6881 Q877.4247,297.6881 876.7372,298.7663 Q876.0497,299.8288 876.0497,301.9225 Q876.0497,304.0163 876.7372,305.0944 Q877.4247,306.1569 878.7685,306.1569 Q879.3935,306.1569 879.9872,305.8913 Q880.581,305.61 881.206,305.0319 L881.206,307.7506 Z " fill="#000000"/><text fill="#000000" font-family="sans-serif" font-size="14" lengthAdjust="spacing" textLength="32.9971" x="898.7372" y="306.9567">Card</text><line style="stroke:#181818;stroke-width:0.5;" x1="812.31" x2="985.6616" y1="318.11" y2="318.11"/><text fill="#000000" font-family="sans-serif" font-size="14" lengthAdjust="spacing" textLength="101.8965" x="817.31" y="335.1051">+String cardId</text><text fill="#000000" font-family="sans-serif" font-size="14" lengthAdjust="spacing" textLength="145.1201" x="817.31" y="351.402">+String cardNumber</text><text fill="#000000" font-family="sans-serif" font-size="14" lengthAdjust="spacing" textLength="163.3516" x="817.31" y="367.6989">+LocalDate expiryDate</text><text fill="#000000" font-family="sans-serif" font-size="14" lengthAdjust="spacing" textLength="82.2295" x="817.31" y="383.9957">+String cvv</text><text fill="#000000" font-family="sans-serif" font-size="14" lengthAdjust="spacing" textLength="89.2363" x="817.31" y="400.2926">+String type</text><text fill="#000000" font-family="sans-serif" font-size="14" lengthAdjust="spacing" textLength="100.9805" x="817.31" y="416.5895">+String status</text><text fill="#000000" font-family="sans-serif" font-size="14" lengthAdjust="spacing" textLength="126.752" x="817.31" y="432.8864">+String accountId</text><line style="stroke:#181818;stroke-width:0.5;" x1="812.31" x2="985.6616" y1="440.1881" y2="440.1881"/></g><!--class Loan--><g class="entity" data-entity="Loan" data-source-line="104" data-uid="ent0017" id="entity_Loan"><rect fill="#F1F1F1" height="162.0781" rx="2.5" ry="2.5" style="stroke:#181818;stroke-width:0.5;" width="164.2432" x="1021.87" y="286.11"/><ellipse cx="1082.8329" cy="302.11" fill="#ADD1B2" rx="11" ry="11" style="stroke:#181818;stroke-width:1;"/><path d="M1085.8016,307.7506 Q1085.2235,308.0475 1084.5829,308.1881 Q1083.9423,308.3444 1083.2391,308.3444 Q1080.7391,308.3444 1079.411,306.7038 Q1078.0985,305.0475 1078.0985,301.9225 Q1078.0985,298.7975 1079.411,297.1413 Q1080.7391,295.485 1083.2391,295.485 Q1083.9423,295.485 1084.5829,295.6413 Q1085.2391,295.7975 1085.8016,296.0944 L1085.8016,298.8131 Q1085.1766,298.235 1084.5829,297.9694 Q1083.9891,297.6881 1083.3641,297.6881 Q1082.0204,297.6881 1081.3329,298.7663 Q1080.6454,299.8288 1080.6454,301.9225 Q1080.6454,304.0163 1081.3329,305.0944 Q1082.0204,306.1569 1083.3641,306.1569 Q1083.9891,306.1569 1084.5829,305.8913 Q1085.1766,305.61 1085.8016,305.0319 L1085.8016,307.7506 Z " fill="#000000"/><text fill="#000000" font-family="sans-serif" font-size="14" lengthAdjust="spacing" textLength="33.8174" x="1103.3329" y="306.9567">Loan</text><line style="stroke:#181818;stroke-width:0.5;" x1="1022.87" x2="1185.1132" y1="318.11" y2="318.11"/><text fill="#000000" font-family="sans-serif" font-size="14" lengthAdjust="spacing" textLength="100.8848" x="1027.87" y="335.1051">+String loanId</text><text fill="#000000" font-family="sans-serif" font-size="14" lengthAdjust="spacing" textLength="149.666" x="1027.87" y="351.402">+BigDecimal amount</text><text fill="#000000" font-family="sans-serif" font-size="14" lengthAdjust="spacing" textLength="150.3223" x="1027.87" y="367.6989">+double interestRate</text><text fill="#000000" font-family="sans-serif" font-size="14" lengthAdjust="spacing" textLength="67.9287" x="1027.87" y="383.9957">+int term</text><text fill="#000000" font-family="sans-serif" font-size="14" lengthAdjust="spacing" textLength="152.2432" x="1027.87" y="400.2926">+LocalDate startDate</text><text fill="#000000" font-family="sans-serif" font-size="14" lengthAdjust="spacing" textLength="100.9805" x="1027.87" y="416.5895">+String status</text><text fill="#000000" font-family="sans-serif" font-size="14" lengthAdjust="spacing" textLength="126.752" x="1027.87" y="432.8864">+String accountId</text><line style="stroke:#181818;stroke-width:0.5;" x1="1022.87" x2="1185.1132" y1="440.1881" y2="440.1881"/></g><!--class PaymentPlan--><g class="entity" data-entity="PaymentPlan" data-source-line="116" data-uid="ent0019" id="entity_PaymentPlan"><rect fill="#F1F1F1" height="129.4844" rx="2.5" ry="2.5" style="stroke:#181818;stroke-width:0.5;" width="161.666" x="1023.15" y="7"/><ellipse cx="1055.2329" cy="23" fill="#ADD1B2" rx="11" ry="11" style="stroke:#181818;stroke-width:1;"/><path d="M1058.2016,28.6406 Q1057.6235,28.9375 1056.9829,29.0781 Q1056.3422,29.2344 1055.6391,29.2344 Q1053.1391,29.2344 1051.811,27.5938 Q1050.4985,25.9375 1050.4985,22.8125 Q1050.4985,19.6875 1051.811,18.0313 Q1053.1391,16.375 1055.6391,16.375 Q1056.3422,16.375 1056.9829,16.5313 Q1057.6391,16.6875 1058.2016,16.9844 L1058.2016,19.7031 Q1057.5766,19.125 1056.9829,18.8594 Q1056.3891,18.5781 1055.7641,18.5781 Q1054.4204,18.5781 1053.7329,19.6563 Q1053.0454,20.7188 1053.0454,22.8125 Q1053.0454,24.9063 1053.7329,25.9844 Q1054.4204,27.0469 1055.7641,27.0469 Q1056.3891,27.0469 1056.9829,26.7813 Q1057.5766,26.5 1058.2016,25.9219 L1058.2016,28.6406 Z " fill="#000000"/><text fill="#000000" font-family="sans-serif" font-size="14" lengthAdjust="spacing" textLength="91.7041" x="1073.0291" y="27.8467">PaymentPlan</text><line style="stroke:#181818;stroke-width:0.5;" x1="1024.15" x2="1183.816" y1="39" y2="39"/><text fill="#000000" font-family="sans-serif" font-size="14" lengthAdjust="spacing" textLength="101.2061" x="1029.15" y="55.9951">+String planId</text><text fill="#000000" font-family="sans-serif" font-size="14" lengthAdjust="spacing" textLength="146.0088" x="1029.15" y="72.292">+LocalDate dueDate</text><text fill="#000000" font-family="sans-serif" font-size="14" lengthAdjust="spacing" textLength="149.666" x="1029.15" y="88.5889">+BigDecimal amount</text><text fill="#000000" font-family="sans-serif" font-size="14" lengthAdjust="spacing" textLength="100.9805" x="1029.15" y="104.8857">+String status</text><text fill="#000000" font-family="sans-serif" font-size="14" lengthAdjust="spacing" textLength="100.8848" x="1029.15" y="121.1826">+String loanId</text><line style="stroke:#181818;stroke-width:0.5;" x1="1024.15" x2="1183.816" y1="128.4844" y2="128.4844"/></g><!--class Beneficiary--><g class="entity" data-entity="Beneficiary" data-source-line="126" data-uid="ent0021" id="entity_Beneficiary"><rect fill="#F1F1F1" height="113.1875" rx="2.5" ry="2.5" style="stroke:#181818;stroke-width:0.5;" width="181.9756" x="7" y="310.56"/><ellipse cx="54.373" cy="326.56" fill="#ADD1B2" rx="11" ry="11" style="stroke:#181818;stroke-width:1;"/><path d="M57.3418,332.2006 Q56.7637,332.4975 56.123,332.6381 Q55.4824,332.7944 54.7793,332.7944 Q52.2793,332.7944 50.9512,331.1538 Q49.6387,329.4975 49.6387,326.3725 Q49.6387,323.2475 50.9512,321.5913 Q52.2793,319.935 54.7793,319.935 Q55.4824,319.935 56.123,320.0913 Q56.7793,320.2475 57.3418,320.5444 L57.3418,323.2631 Q56.7168,322.685 56.123,322.4194 Q55.5293,322.1381 54.9043,322.1381 Q53.5605,322.1381 52.873,323.2163 Q52.1855,324.2788 52.1855,326.3725 Q52.1855,328.4663 52.873,329.5444 Q53.5605,330.6069 54.9043,330.6069 Q55.5293,330.6069 56.123,330.3413 Q56.7168,330.06 57.3418,329.4819 L57.3418,332.2006 Z " fill="#000000"/><text fill="#000000" font-family="sans-serif" font-size="14" lengthAdjust="spacing" textLength="78.7295" x="74.873" y="331.4067">Beneficiary</text><line style="stroke:#181818;stroke-width:0.5;" x1="8" x2="187.9756" y1="342.56" y2="342.56"/><text fill="#000000" font-family="sans-serif" font-size="14" lengthAdjust="spacing" textLength="148.9893" x="13" y="359.5551">+String beneficiaryId</text><text fill="#000000" font-family="sans-serif" font-size="14" lengthAdjust="spacing" textLength="169.9756" x="13" y="375.852">+String accountNumber</text><text fill="#000000" font-family="sans-serif" font-size="14" lengthAdjust="spacing" textLength="140.9434" x="13" y="392.1489">+String bankDetails</text><text fill="#000000" font-family="sans-serif" font-size="14" lengthAdjust="spacing" textLength="127.3398" x="13" y="408.4457">+String userEmail</text><line style="stroke:#181818;stroke-width:0.5;" x1="8" x2="187.9756" y1="415.7475" y2="415.7475"/></g><!--class AuditLog--><g class="entity" data-entity="AuditLog" data-source-line="135" data-uid="ent0023" id="entity_AuditLog"><rect fill="#F1F1F1" height="129.4844" rx="2.5" ry="2.5" style="stroke:#181818;stroke-width:0.5;" width="208.3828" x="223.8" y="302.41"/><ellipse cx="292.7575" cy="318.41" fill="#ADD1B2" rx="11" ry="11" style="stroke:#181818;stroke-width:1;"/><path d="M295.7263,324.0506 Q295.1481,324.3475 294.5075,324.4881 Q293.8669,324.6444 293.1638,324.6444 Q290.6638,324.6444 289.3356,323.0038 Q288.0231,321.3475 288.0231,318.2225 Q288.0231,315.0975 289.3356,313.4413 Q290.6638,311.785 293.1638,311.785 Q293.8669,311.785 294.5075,311.9413 Q295.1638,312.0975 295.7263,312.3944 L295.7263,315.1131 Q295.1013,314.535 294.5075,314.2694 Q293.9138,313.9881 293.2888,313.9881 Q291.945,313.9881 291.2575,315.0663 Q290.57,316.1288 290.57,318.2225 Q290.57,320.3163 291.2575,321.3944 Q291.945,322.4569 293.2888,322.4569 Q293.9138,322.4569 294.5075,322.1913 Q295.1013,321.91 295.7263,321.3319 L295.7263,324.0506 Z " fill="#000000"/><text fill="#000000" font-family="sans-serif" font-size="14" lengthAdjust="spacing" textLength="61.9678" x="313.2575" y="323.2567">AuditLog</text><line style="stroke:#181818;stroke-width:0.5;" x1="224.8" x2="431.1828" y1="334.41" y2="334.41"/><text fill="#000000" font-family="sans-serif" font-size="14" lengthAdjust="spacing" textLength="92.3193" x="229.8" y="351.4051">+String logId</text><text fill="#000000" font-family="sans-serif" font-size="14" lengthAdjust="spacing" textLength="101.0557" x="229.8" y="367.702">+String action</text><text fill="#000000" font-family="sans-serif" font-size="14" lengthAdjust="spacing" textLength="196.3828" x="229.8" y="383.9989">+LocalDateTime timestamp</text><text fill="#000000" font-family="sans-serif" font-size="14" lengthAdjust="spacing" textLength="127.0459" x="229.8" y="400.2957">+String ipAddress</text><text fill="#000000" font-family="sans-serif" font-size="14" lengthAdjust="spacing" textLength="127.3398" x="229.8" y="416.5926">+String userEmail</text><line style="stroke:#181818;stroke-width:0.5;" x1="224.8" x2="431.1828" y1="423.8944" y2="423.8944"/></g><!--class Alert--><g class="entity" data-entity="Alert" data-source-line="145" data-uid="ent0025" id="entity_Alert"><rect fill="#F1F1F1" height="145.7813" rx="2.5" ry="2.5" style="stroke:#181818;stroke-width:0.5;" width="138.752" x="1220.61" y="294.26"/><ellipse cx="1269.0734" cy="310.26" fill="#ADD1B2" rx="11" ry="11" style="stroke:#181818;stroke-width:1;"/><path d="M1272.0421,315.9006 Q1271.464,316.1975 1270.8234,316.3381 Q1270.1828,316.4944 1269.4796,316.4944 Q1266.9796,316.4944 1265.6515,314.8538 Q1264.339,313.1975 1264.339,310.0725 Q1264.339,306.9475 1265.6515,305.2913 Q1266.9796,303.635 1269.4796,303.635 Q1270.1828,303.635 1270.8234,303.7913 Q1271.4796,303.9475 1272.0421,304.2444 L1272.0421,306.9631 Q1271.4171,306.385 1270.8234,306.1194 Q1270.2296,305.8381 1269.6046,305.8381 Q1268.2609,305.8381 1267.5734,306.9163 Q1266.8859,307.9788 1266.8859,310.0725 Q1266.8859,312.1663 1267.5734,313.2444 Q1268.2609,314.3069 1269.6046,314.3069 Q1270.2296,314.3069 1270.8234,314.0413 Q1271.4171,313.76 1272.0421,313.1819 L1272.0421,315.9006 Z " fill="#000000"/><text fill="#000000" font-family="sans-serif" font-size="14" lengthAdjust="spacing" textLength="33.3252" x="1289.5734" y="315.1067">Alert</text><line style="stroke:#181818;stroke-width:0.5;" x1="1221.61" x2="1358.362" y1="326.26" y2="326.26"/><text fill="#000000" font-family="sans-serif" font-size="14" lengthAdjust="spacing" textLength="103.3047" x="1226.61" y="343.2551">+String alertId</text><text fill="#000000" font-family="sans-serif" font-size="14" lengthAdjust="spacing" textLength="89.2363" x="1226.61" y="359.552">+String type</text><text fill="#000000" font-family="sans-serif" font-size="14" lengthAdjust="spacing" textLength="120.8799" x="1226.61" y="375.8489">+String message</text><text fill="#000000" font-family="sans-serif" font-size="14" lengthAdjust="spacing" textLength="114.1875" x="1226.61" y="392.1457">+String severity</text><text fill="#000000" font-family="sans-serif" font-size="14" lengthAdjust="spacing" textLength="100.9805" x="1226.61" y="408.4426">+String status</text><text fill="#000000" font-family="sans-serif" font-size="14" lengthAdjust="spacing" textLength="126.752" x="1226.61" y="424.7395">+String accountId</text><line style="stroke:#181818;stroke-width:0.5;" x1="1221.61" x2="1358.362" y1="432.0413" y2="432.0413"/></g><!--class ExchangeRate--><g class="entity" data-entity="ExchangeRate" data-source-line="154" data-uid="ent0027" id="entity_ExchangeRate"><rect fill="#F1F1F1" height="113.1875" rx="2.5" ry="2.5" style="stroke:#181818;stroke-width:0.5;" width="167.5244" x="1220.23" y="15.15"/><ellipse cx="1250.7379" cy="31.15" fill="#ADD1B2" rx="11" ry="11" style="stroke:#181818;stroke-width:1;"/><path d="M1253.7066,36.7906 Q1253.1285,37.0875 1252.4879,37.2281 Q1251.8472,37.3844 1251.1441,37.3844 Q1248.6441,37.3844 1247.316,35.7438 Q1246.0035,34.0875 1246.0035,30.9625 Q1246.0035,27.8375 1247.316,26.1813 Q1248.6441,24.525 1251.1441,24.525 Q1251.8472,24.525 1252.4879,24.6813 Q1253.1441,24.8375 1253.7066,25.1344 L1253.7066,27.8531 Q1253.0816,27.275 1252.4879,27.0094 Q1251.8941,26.7281 1251.2691,26.7281 Q1249.9254,26.7281 1249.2379,27.8063 Q1248.5504,28.8688 1248.5504,30.9625 Q1248.5504,33.0563 1249.2379,34.1344 Q1249.9254,35.1969 1251.2691,35.1969 Q1251.8941,35.1969 1252.4879,34.9313 Q1253.0816,34.65 1253.7066,34.0719 L1253.7066,36.7906 Z " fill="#000000"/><text fill="#000000" font-family="sans-serif" font-size="14" lengthAdjust="spacing" textLength="101.0625" x="1268.1841" y="35.9967">ExchangeRate</text><line style="stroke:#181818;stroke-width:0.5;" x1="1221.23" x2="1386.7544" y1="47.15" y2="47.15"/><text fill="#000000" font-family="sans-serif" font-size="14" lengthAdjust="spacing" textLength="99.415" x="1226.23" y="64.1451">+String rateId</text><text fill="#000000" font-family="sans-serif" font-size="14" lengthAdjust="spacing" textLength="155.5244" x="1226.23" y="80.442">+String currencyFrom</text><text fill="#000000" font-family="sans-serif" font-size="14" lengthAdjust="spacing" textLength="136.6299" x="1226.23" y="96.7389">+String currencyTo</text><text fill="#000000" font-family="sans-serif" font-size="14" lengthAdjust="spacing" textLength="92.333" x="1226.23" y="113.0357">+double rate</text><line style="stroke:#181818;stroke-width:0.5;" x1="1221.23" x2="1386.7544" y1="120.3375" y2="120.3375"/></g><!--link User to Role--><g class="link" data-entity-1="User" data-entity-2="Role" data-source-line="35" data-uid="lnk5" id="link_User_Role"><path codeLine="35" d="M385.99,906.65 C385.99,946.78 385.99,980.66 385.99,1009.07" fill="none" id="User-to-Role" style="stroke:#181818;stroke-width:1;"/><polygon fill="#181818" points="385.99,1015.07,389.99,1006.07,385.99,1010.07,381.99,1006.07,385.99,1015.07" style="stroke:#181818;stroke-width:1;"/></g><!--link User to Status--><g class="link" data-entity-1="User" data-entity-2="Status" data-source-line="36" data-uid="lnk6" id="link_User_Status"><path codeLine="36" d="M277.78,906.65 C277.78,939.6 277.78,966.39 277.78,992.79" fill="none" id="User-to-Status" style="stroke:#181818;stroke-width:1;"/><polygon fill="#181818" points="277.78,998.79,281.78,989.79,277.78,993.79,273.78,989.79,277.78,998.79" style="stroke:#181818;stroke-width:1;"/></g><!--link Account to Customer--><g class="link" data-entity-1="Account" data-entity-2="Customer" data-source-line="59" data-uid="lnk9" id="link_Account_Customer"><path codeLine="59" d="M1000.99,833.55 C1000.99,874.47 1000.99,918.17 1000.99,960.18" fill="none" id="Account-to-Customer" style="stroke:#181818;stroke-width:1;stroke-dasharray:7.0,7.0;"/><polygon fill="#181818" points="1000.99,966.18,1004.99,957.18,1000.99,961.18,996.99,957.18,1000.99,966.18" style="stroke:#181818;stroke-width:1;"/><text fill="#000000" font-family="sans-serif" font-size="13" lengthAdjust="spacing" textLength="73.3027" x="926.99" y="895.9269">customerId</text></g><!--link Transaction to TransactionStatus--><g class="link" data-entity-1="Transaction" data-entity-2="TransactionStatus" data-source-line="88" data-uid="lnk12" id="link_Transaction_TransactionStatus"><path codeLine="88" d="M621.99,538.28 C621.99,598.54 621.99,655.62 621.99,697.54" fill="none" id="Transaction-to-TransactionStatus" style="stroke:#181818;stroke-width:1;"/><polygon fill="#181818" points="621.99,703.54,625.99,694.54,621.99,698.54,617.99,694.54,621.99,703.54" style="stroke:#181818;stroke-width:1;"/></g><!--link Transaction to User--><g class="link" data-entity-1="Transaction" data-entity-2="User" data-source-line="89" data-uid="lnk13" id="link_Transaction_User"><path codeLine="89" d="M505.14,538.27 C505.14,590.75 505.14,634.95 505.14,634.95 C505.14,634.95 469.74,634.95 426.97,634.95" fill="none" id="Transaction-to-User" style="stroke:#181818;stroke-width:1;stroke-dasharray:7.0,7.0;"/><polygon fill="#181818" points="420.97,634.95,429.97,638.95,425.97,634.95,429.97,630.95,420.97,634.95" style="stroke:#181818;stroke-width:1;"/><text fill="#000000" font-family="sans-serif" font-size="13" lengthAdjust="spacing" textLength="64.4224" x="440.14" y="624.7569">userEmail</text></g><!--link Transaction to Account--><g class="link" data-entity-1="Transaction" data-entity-2="Account" data-source-line="90" data-uid="lnk14" id="link_Transaction_Account"><path codeLine="90" d="M738.84,537.88 C738.84,614.49 738.84,687.95 738.84,687.95 C738.84,687.95 828.01,687.95 903.67,687.95" fill="none" id="Transaction-to-Account" style="stroke:#181818;stroke-width:1;stroke-dasharray:7.0,7.0;"/><polygon fill="#181818" points="909.67,687.95,900.67,683.95,904.67,687.95,900.67,691.95,909.67,687.95" style="stroke:#181818;stroke-width:1;"/><text fill="#000000" font-family="sans-serif" font-size="13" lengthAdjust="spacing" textLength="63.8765" x="685.22" y="684.0169">accountId</text></g><!--link Card to Account--><g class="link" data-entity-1="Card" data-entity-2="Account" data-source-line="102" data-uid="lnk16" id="link_Card_Account"><path codeLine="102" d="M948.33,448.34 C948.33,513.76 948.33,599.31 948.33,664.79" fill="none" id="Card-to-Account" style="stroke:#181818;stroke-width:1;stroke-dasharray:7.0,7.0;"/><polygon fill="#181818" points="948.33,670.79,952.33,661.79,948.33,665.79,944.33,661.79,948.33,670.79" style="stroke:#181818;stroke-width:1;"/><text fill="#000000" font-family="sans-serif" font-size="13" lengthAdjust="spacing" textLength="63.8765" x="884.33" y="555.6369">accountId</text></g><!--link Loan to Account--><g class="link" data-entity-1="Loan" data-entity-2="Account" data-source-line="114" data-uid="lnk18" id="link_Loan_Account"><path codeLine="114" d="M1056.92,448.34 C1056.92,513.76 1056.92,599.31 1056.92,664.79" fill="none" id="Loan-to-Account" style="stroke:#181818;stroke-width:1;stroke-dasharray:7.0,7.0;"/><polygon fill="#181818" points="1056.92,670.79,1060.92,661.79,1056.92,665.79,1052.92,661.79,1056.92,670.79" style="stroke:#181818;stroke-width:1;"/><text fill="#000000" font-family="sans-serif" font-size="13" lengthAdjust="spacing" textLength="63.8765" x="992.92" y="555.6369">accountId</text></g><!--link PaymentPlan to Loan--><g class="link" data-entity-1="PaymentPlan" data-entity-2="Loan" data-source-line="124" data-uid="lnk20" id="link_PaymentPlan_Loan"><path codeLine="124" d="M1103.99,136.93 C1103.99,180.77 1103.99,232.89 1103.99,279.76" fill="none" id="PaymentPlan-to-Loan" style="stroke:#181818;stroke-width:1;stroke-dasharray:7.0,7.0;"/><polygon fill="#181818" points="1103.99,285.76,1107.99,276.76,1103.99,280.76,1099.99,276.76,1103.99,285.76" style="stroke:#181818;stroke-width:1;"/><text fill="#000000" font-family="sans-serif" font-size="13" lengthAdjust="spacing" textLength="39.8569" x="1063.99" y="207.4169">loanId</text></g><!--link Beneficiary to User--><g class="link" data-entity-1="Beneficiary" data-entity-2="User" data-source-line="133" data-uid="lnk22" id="link_Beneficiary_User"><path codeLine="133" d="M97.99,424.08 C97.99,531.39 97.99,752.95 97.99,752.95 C97.99,752.95 165.27,752.95 229.1,752.95" fill="none" id="Beneficiary-to-User" style="stroke:#181818;stroke-width:1;stroke-dasharray:7.0,7.0;"/><polygon fill="#181818" points="235.1,752.95,226.1,748.95,230.1,752.95,226.1,756.95,235.1,752.95" style="stroke:#181818;stroke-width:1;"/><text fill="#000000" font-family="sans-serif" font-size="13" lengthAdjust="spacing" textLength="64.4224" x="32.99" y="653.1369">userEmail</text></g><!--link AuditLog to User--><g class="link" data-entity-1="AuditLog" data-entity-2="User" data-source-line="143" data-uid="lnk24" id="link_AuditLog_User"><path codeLine="143" d="M327.99,432.04 C327.99,477.37 327.99,533.88 327.99,591.64" fill="none" id="AuditLog-to-User" style="stroke:#181818;stroke-width:1;stroke-dasharray:7.0,7.0;"/><polygon fill="#181818" points="327.99,597.64,331.99,588.64,327.99,592.64,323.99,588.64,327.99,597.64" style="stroke:#181818;stroke-width:1;"/><text fill="#000000" font-family="sans-serif" font-size="13" lengthAdjust="spacing" textLength="64.4224" x="262.99" y="510.9069">userEmail</text></g><!--link Alert to Account--><g class="link" data-entity-1="Alert" data-entity-2="Account" data-source-line="153" data-uid="lnk26" id="link_Alert_Account"><path codeLine="153" d="M1289.99,440.17 C1289.99,552.02 1289.99,752.95 1289.99,752.95 C1289.99,752.95 1183.1,752.95 1098.43,752.95" fill="none" id="Alert-to-Account" style="stroke:#181818;stroke-width:1;stroke-dasharray:7.0,7.0;"/><polygon fill="#181818" points="1092.43,752.95,1101.43,756.95,1097.43,752.95,1101.43,748.95,1092.43,752.95" style="stroke:#181818;stroke-width:1;"/><text fill="#000000" font-family="sans-serif" font-size="13" lengthAdjust="spacing" textLength="63.8765" x="1225.99" y="691.4069">accountId</text></g><!--SRC=[dLPDRzim3BtxL_W-jDWvXm9fxGqfkZH8qjvbcN64of8XoLczeVzzzBSasqsn71BhYQ8U-KWw-es9WYYIXvGJhTV6A9QK1ZPKYWFx0-7tG0ycd0amLG6XLEOiWw0v4hveKE7V8CJFjmCU5ra8EM7SGGgq_2rLwe0dfhJPaXmS59rEmU8iXOkGD5MWjODHPYhtcDI6y0UPkcUfB8LHbNTME6j139E2y8bB9KzuB-wrS2hBX4EOIs7ElDe8AdlgJv8I7X43OS8mOVLJxucOKeUw-McXlKGV2h-2Zo00KUPXWxHfVJd4- -PX7VtQR0UBparhiuktqMRxipNRxVRFht7KBFRnO_nmx1Q7bqDjY2jqqWXtStFNN3MkMhUzkW-bDXYHhp3juCr_ApfJ8vzhl9ZEH29_8iAtYhw2OYS6QHrUotzD6x4z-gH5FVOTkYtp19IpKrUz8tT2E17KPMlhEPAL1GXRUZzzoBJdU7jxD-PxPHjrmHmL4PhGkZ2zWCouCn-KXvQeTZmgSC-o22ZB2RSzhVFwvD8zno4dlSmOindweWDJk30AtksiMCzqBuPApsH2jSO4T4Gtma26sUbpiyxc4_jCQLbORFfp5l-eL3C6N6PCu1Y4l31wafmkcVUs-eFKHvQ3Sy6WkcjIACo9BFLnpjG2tJ7HT_tKuAi303tO1LJt-iIPOr7NOpCMLbQz-0PzyQwiIkjd1r6fFpSGylL5o6wviNNWlM2gcZRFvRBGd3EDEEa2p4B3wmht9qdy7kC8zTpjch2wf9iE38i9ozli1-g8X8ZbVeX8LPb9XDS2QCXT2M17gXo4sV5970KVunYPf2MCF1R2MwRNvGQvsVVM51kkgzwW8tSF0awCCg8gZrmoxdnvEYT4l4LWi3hrmf13NlQLiuNTlp3Ab9adcKt4poPynkdXpG3ymXpbnHU6diDnkFjJWXpKv7rMOnw_ILiWAKsyUQdXWgzCxo_EbV9h2IoLNqioVg_7TWPr1tXSSUhwxmDQAWM2LZ-Kp6StZjBfhzf5yF4F]--></g></svg>